Coordinates
version=1
nRows=19
nColumns=33
inDegrees=yes

Units are S.I. units (second, meters, Newtons, ...)
Angles are in degrees.

endheader
time	ground_thorax_rot_x	ground_thorax_rot_y	ground_thorax_rot_z	ground_thorax_tx	ground_thorax_ty	ground_thorax_tz	clav_prot_r	clav_elev_r	scapula_abduction_r	scapula_elevation_r	scapula_upward_rot_r	scapula_winging_r	shoulder_elv_r	plane_of_elev_r	axial_rot_r	elbow_flexion_r	pro_sup_r	wrist_flex_r	wrist_dev_r	clav_prot_l	clav_elev_l	scapula_abduction_l	scapula_elevation_l	scapula_upward_rot_l	scapula_winging_l	shoulder_elv_l	plane_of_elev_l	axial_rot_l	elbow_flexion_l	pro_sup_l	wrist_flex_l	wrist_dev_l	
7.9600	-24.283704	-27.991172	44.944832	87.441345	771.686484	-41.508635	29.020417	-45.000000	40.953422	-45.000000	-45.000000	627.277603	-4970.012349	20.611056	180.000000	1446.962425	-162.849863	11.699444	12.675330	2.432317	26.858034	-30.504908	-42.217963	-45.000000	-3521.792809	630.365827	132.275417	-93.581962	709.356143	405.617877	12.421240	-14.213337	
7.9700	-24.369446	-27.858852	44.821005	87.384716	771.463564	-41.594084	29.062302	-45.000000	40.954803	-45.000000	-45.000000	627.281609	-4970.002568	20.594110	180.000000	1447.021770	-163.339307	11.699543	12.636965	2.435394	26.753390	-30.530755	-42.154285	-45.000000	-3521.750305	630.357072	132.286515	-93.779148	709.380116	405.779590	12.364446	-14.217289	
7.9800	-24.463090	-27.696085	44.675835	87.287825	771.244811	-41.677895	29.161132	-45.000000	40.943869	-45.000000	-45.000000	627.263318	-4969.973347	20.600089	180.000000	1447.069722	-163.799756	11.741689	12.628299	2.387308	26.557987	-30.583184	-42.060989	-45.000000	-3521.731938	630.347930	132.335608	-93.992981	709.420038	405.949176	12.325848	-14.235243	
7.9900	-24.561430	-27.564111	44.557671	87.104396	771.037531	-41.759037	29.196492	-45.000000	40.932248	-45.000000	-45.000000	627.253476	-4969.956672	20.597816	180.000000	1447.123644	-164.181458	11.776187	12.589455	2.377931	26.473045	-30.614670	-42.030376	-45.000000	-3521.708125	630.324492	132.364612	-94.216000	709.452629	406.126472	12.277406	-14.256488	
8.0000	-24.661698	-27.445098	44.456127	86.826382	770.841277	-41.836344	29.204405	-45.000000	40.921429	-45.000000	-45.000000	627.240168	-4969.941253	20.595832	180.000000	1447.174403	-164.482861	11.814498	12.522839	2.383099	26.442049	-30.635434	-42.026053	-45.000000	-3521.673272	630.299670	132.380415	-94.457299	709.481381	406.322402	12.216844	-14.281236	
8.0100	-24.770126	-27.328015	44.357106	86.439343	770.657331	-41.908783	29.203979	-45.000000	40.905061	-45.000000	-45.000000	627.219972	-4969.919548	20.606159	180.000000	1447.223652	-164.693602	11.879874	12.456464	2.380142	26.431044	-30.657851	-42.043910	-45.000000	-3521.652151	630.263870	132.414503	-94.722398	709.520119	406.540792	12.163866	-14.323560	
8.0200	-24.878668	-27.223743	44.274700	85.938531	770.485719	-41.976125	29.187897	-45.000000	40.895211	-45.000000	-45.000000	627.196641	-4969.899299	20.615581	180.000000	1447.268153	-164.808360	11.949942	12.363171	2.387057	26.460965	-30.667066	-42.079147	-45.000000	-3521.616563	630.228697	132.440714	-95.006627	709.561901	406.788698	12.096178	-14.371370	
8.0300	-24.993425	-27.118218	44.190749	85.323600	770.326323	-42.039628	29.183224	-45.000000	40.882293	-45.000000	-45.000000	627.166542	-4969.873710	20.636876	180.000000	1447.306165	-164.827335	12.048248	12.271830	2.377500	26.471934	-30.677975	-42.120885	-45.000000	-3521.587940	630.184650	132.488709	-95.309244	709.620891	407.063017	12.036865	-14.437341	
8.0400	-25.106751	-27.020852	44.121811	84.593565	770.179774	-42.102003	29.165117	-45.000000	40.871833	-45.000000	-45.000000	627.132779	-4969.851311	20.655504	180.000000	1447.336690	-164.744955	12.147386	12.145850	2.379048	26.510718	-30.675572	-42.173211	-45.000000	-3521.533302	630.145293	132.516778	-95.618858	709.678736	407.357724	11.962256	-14.504432	
8.0500	-25.224912	-26.916714	44.050617	83.747407	770.046622	-42.167377	29.151709	-45.000000	40.853306	-45.000000	-45.000000	627.094861	-4969.821323	20.677725	180.000000	1447.355474	-164.558960	12.269991	12.018404	2.372438	26.539495	-30.669736	-42.237779	-45.000000	-3521.493324	630.101830	132.559654	-95.934926	709.744688	407.657245	11.898700	-14.580160	
8.0600	-25.339302	-26.821356	43.994574	82.783834	769.926981	-42.240423	29.133423	-45.000000	40.838716	-45.000000	-45.000000	627.061926	-4969.791159	20.683824	180.000000	1447.361939	-164.261472	12.390562	11.867330	2.380803	26.616562	-30.632316	-42.335725	-45.000000	-3521.469413	630.059105	132.594565	-96.248640	709.812515	407.950158	11.823476	-14.647365	
8.0700	-25.454880	-26.725116	43.939797	81.701485	769.820107	-42.325410	29.121613	-45.000000	40.821290	-45.000000	-45.000000	627.034652	-4969.753875	20.678678	180.000000	1447.353227	-163.850891	12.524828	11.717310	2.390156	26.715209	-30.570575	-42.466345	-45.000000	-3521.490789	630.012528	132.647259	-96.560976	709.888379	408.221556	11.754593	-14.710443	
8.0800	-25.569131	-26.626130	43.887858	80.499022	769.724415	-42.425062	29.111823	-45.000000	40.803993	-45.000000	-45.000000	627.009879	-4969.710691	20.662899	180.000000	1447.335869	-163.330257	12.661912	11.561199	2.403290	26.853796	-30.486376	-42.622709	-45.000000	-3521.538315	629.968715	132.699365	-96.862581	709.964399	408.460095	11.681627	-14.763137	
8.0900	-25.686855	-26.519591	43.831794	79.175208	769.637316	-42.540423	29.109288	-45.000000	40.782173	-45.000000	-45.000000	626.984336	-4969.662144	20.640526	180.000000	1447.313046	-162.711475	12.809252	11.419780	2.410942	27.011513	-30.394038	-42.795628	-45.000000	-3521.612794	629.928426	132.766597	-97.147813	710.038448	408.655359	11.623090	-14.813468	
8.1000	-25.805636	-26.413552	43.775734	77.729165	769.555912	-42.671374	29.113148	-45.000000	40.760339	-45.000000	-45.000000	626.956964	-4969.615336	20.613397	180.000000	1447.294585	-162.011375	12.954005	11.290350	2.416941	27.202343	-30.293385	-42.983775	-45.000000	-3521.691624	629.889613	132.834685	-97.406005	710.106957	408.803469	11.575043	-14.864217	
8.1100	-25.928515	-26.305493	43.714598	76.160252	769.477793	-42.817634	29.122870	-45.000000	40.733760	-45.000000	-45.000000	626.921309	-4969.573662	20.587490	180.000000	1447.280731	-161.254826	13.095199	11.176794	2.418706	27.405754	-30.197143	-43.171693	-45.000000	-3521.753686	629.857791	132.899220	-97.636374	710.161450	408.903605	11.546215	-14.920910	
8.1200	-26.058469	-26.185797	43.635547	74.467833	769.403551	-42.981730	29.130954	-45.000000	40.700843	-45.000000	-45.000000	626.876844	-4969.532249	20.568265	180.000000	1447.274632	-160.476137	13.226279	11.080360	2.417979	27.600715	-30.116562	-43.343896	-45.000000	-3521.785458	629.832738	132.951777	-97.843921	710.203251	408.959161	11.531534	-14.983145	
8.1300	-26.200203	-26.057352	43.533216	72.650817	769.337845	-43.170055	29.135475	-45.000000	40.660870	-45.000000	-45.000000	626.830749	-4969.493951	20.549563	180.000000	1447.270907	-159.709493	13.339683	11.005687	2.419873	27.778423	-30.049298	-43.503073	-45.000000	-3521.797276	629.812523	132.998899	-98.035898	710.234308	408.978806	11.524765	-15.045639	
8.1400	-26.357906	-25.922066	43.399963	70.703425	769.298284	-43.404183	29.138577	-45.000000	40.617596	-45.000000	-45.000000	626.790360	-4969.458223	20.527349	180.000000	1447.266694	-158.980474	13.427132	10.956446	2.428679	27.941022	-29.988330	-43.651199	-45.000000	-3521.800623	629.792182	133.041036	-98.219056	710.266055	408.974334	11.516011	-15.106386	
